Normalized EMG Linear Envelopes
nRows=238
nColumns=4

endheader
time	 med_gas_r	  soleus_r	 tib_ant_r	
6.3871	  0.025935	  0.228734	  0.030128	
6.42036	  0.025841	  0.223271	  0.030293	
6.45363	  0.025653	  0.217851	  0.030449	
6.4869	  0.025343	  0.212902	  0.030576	
6.52016	  0.024910	  0.208922	  0.030702	
6.55343	  0.024385	  0.206193	  0.030882	
6.58669	  0.023834	  0.204653	  0.031143	
6.61996	  0.023356	  0.204130	  0.031455	
6.65323	  0.023063	  0.204654	  0.031749	
6.68649	  0.023040	  0.206461	  0.031982	
6.71976	  0.023308	  0.209639	  0.032170	
6.75302	  0.023809	  0.213807	  0.032361	
6.78629	  0.024428	  0.218183	  0.032564	
6.81956	  0.025026	  0.221942	  0.032716	
6.85282	  0.025485	  0.224534	  0.032713	
6.88609	  0.025734	  0.225729	  0.032505	
6.91935	  0.025743	  0.225479	  0.032150	
6.95262	  0.025518	  0.223777	  0.031804	
6.98589	  0.025098	  0.220683	  0.031632	
7.01915	  0.024570	  0.216537	  0.031722	
7.05242	  0.024071	  0.212154	  0.032042	
7.08569	  0.023738	  0.208686	  0.032474	
7.11895	  0.023640	  0.207080	  0.032886	
7.15222	  0.023744	  0.207589	  0.033186	
7.18548	  0.023942	  0.209792	  0.033335	
7.21875	  0.024133	  0.213037	  0.033329	
7.25202	  0.024288	  0.216761	  0.033165	
7.28528	  0.024469	  0.220382	  0.032841	
7.31855	  0.024811	  0.223155	  0.032377	
7.35181	  0.025496	  0.224488	  0.031834	
7.38508	  0.026714	  0.224596	  0.031300	
7.41835	  0.028594	  0.224778	  0.030851	
7.45161	  0.031092	  0.226866	  0.030518	
7.48488	  0.033936	  0.232204	  0.030298	
7.51815	  0.036725	  0.241023	  0.030197	
7.55141	  0.039156	  0.252710	  0.030264	
7.58468	  0.041225	  0.266518	  0.030567	
7.61794	  0.043189	  0.281794	  0.031131	
7.65121	  0.045343	  0.297460	  0.031876	
7.68448	  0.047775	  0.311516	  0.032632	
7.71774	  0.050323	  0.321640	  0.033224	
7.75101	  0.052694	  0.326741	  0.033559	
7.78427	  0.054606	  0.327977	  0.033651	
7.81754	  0.055860	  0.328010	  0.033577	
7.85081	  0.056385	  0.329106	  0.033432	
7.88407	  0.056298	  0.331975	  0.033338	
7.91734	  0.055915	  0.336305	  0.033486	
7.9506	  0.055647	  0.341918	  0.034124	
7.98387	  0.055845	  0.348822	  0.035480	
8.01714	  0.056668	  0.356027	  0.037679	
8.0504	  0.058082	  0.360855	  0.040752	
8.08367	  0.059916	  0.360137	  0.044696	
8.11694	  0.061928	  0.352564	  0.049439	
8.1502	  0.063862	  0.339899	  0.054632	
8.18347	  0.065543	  0.325804	  0.059460	
8.21673	  0.067013	  0.313384	  0.062803	
8.25	  0.068578	  0.303704	  0.063789	
8.28327	  0.070664	  0.296287	  0.062394	
8.31653	  0.073532	  0.290655	  0.059551	
8.3498	  0.077102	  0.287199	  0.056678	
8.38306	  0.081022	  0.286678	  0.054962	
8.41633	  0.084846	  0.289068	  0.054871	
8.4496	  0.088100	  0.292993	  0.056067	
8.48286	  0.090268	  0.296225	  0.057683	
8.51613	  0.090864	  0.296801	  0.058817	
8.5494	  0.089678	  0.293909	  0.059056	
8.58266	  0.086957	  0.288060	  0.058712	
8.61593	  0.083317	  0.280566	  0.058570	
8.64919	  0.079443	  0.272759	  0.059260	
8.68246	  0.075823	  0.265490	  0.060696	
8.71573	  0.072676	  0.259182	  0.062006	
8.74899	  0.070043	  0.254271	  0.062071	
8.78226	  0.067936	  0.251634	  0.060279	
8.81552	  0.066478	  0.252713	  0.056957	
8.84879	  0.065923	  0.259099	  0.053182	
8.88206	  0.066519	  0.271643	  0.050210	
8.91532	  0.068273	  0.289496	  0.048994	
8.94859	  0.070840	  0.309788	  0.049993	
8.98185	  0.073663	  0.328442	  0.053120	
9.01512	  0.076279	  0.341859	  0.057682	
9.04839	  0.078511	  0.348473	  0.062448	
9.08165	  0.080402	  0.349186	  0.066083	
9.11492	  0.082000	  0.346603	  0.067832	
9.14819	  0.083248	  0.343775	  0.067917	
9.18145	  0.084059	  0.343188	  0.067230	
9.21472	  0.084447	  0.346110	  0.066540	
9.24798	  0.084524	  0.352209	  0.065912	
9.28125	  0.084375	  0.359619	  0.064860	
9.31452	  0.083997	  0.365707	  0.063000	
9.34778	  0.083395	  0.368288	  0.060570	
9.38105	  0.082713	  0.366541	  0.058397	
9.41431	  0.082245	  0.361010	  0.057463	
9.44758	  0.082283	  0.352770	  0.058436	
9.48085	  0.082928	  0.342555	  0.061378	
9.51411	  0.084026	  0.330581	  0.065602	
9.54738	  0.085273	  0.317104	  0.069804	
9.58065	  0.086371	  0.303023	  0.072612	
9.61391	  0.087146	  0.289929	  0.073375	
9.64718	  0.087542	  0.279604	  0.072584	
9.68044	  0.087574	  0.273373	  0.071454	
9.71371	  0.087257	  0.271582	  0.070915	
9.74698	  0.086566	  0.273354	  0.070878	
9.78024	  0.085441	  0.276731	  0.070408	
9.81351	  0.083843	  0.279292	  0.068617	
9.84677	  0.081836	  0.279050	  0.065415	
9.88004	  0.079645	  0.275282	  0.061532	
9.91331	  0.077610	  0.268906	  0.057950	
9.94657	  0.076086	  0.262200	  0.055374	
9.97984	  0.075326	  0.257953	  0.054140	
10.0131	  0.075398	  0.258366	  0.054386	
10.0464	  0.076162	  0.264192	  0.056080	
10.0796	  0.077309	  0.274441	  0.058794	
10.1129	  0.078466	  0.286803	  0.061560	
10.1462	  0.079295	  0.298625	  0.063138	
10.1794	  0.079521	  0.307919	  0.062662	
10.2127	  0.078900	  0.313720	  0.060142	
10.246	  0.077260	  0.315623	  0.056397	
10.2792	  0.074640	  0.313171	  0.052525	
10.3125	  0.071404	  0.305929	  0.049389	
10.3458	  0.068176	  0.294191	  0.047464	
10.379	  0.065604	  0.279439	  0.046985	
10.4123	  0.064159	  0.263929	  0.048072	
10.4456	  0.064099	  0.249763	  0.050695	
10.4788	  0.065504	  0.238253	  0.054495	
10.5121	  0.068245	  0.229920	  0.058662	
10.5454	  0.071920	  0.224809	  0.062063	
10.5786	  0.075855	  0.222710	  0.063670	
10.6119	  0.079258	  0.223177	  0.063085	
10.6452	  0.081441	  0.225530	  0.060780	
10.6784	  0.082021	  0.228982	  0.057844	
10.7117	  0.081006	  0.232869	  0.055439	
10.745	  0.078750	  0.236853	  0.054381	
10.7782	  0.075812	  0.240999	  0.055070	
10.8115	  0.072799	  0.245680	  0.057535	
10.8448	  0.070280	  0.251311	  0.061355	
10.878	  0.068756	  0.257982	  0.065527	
10.9113	  0.068664	  0.265161	  0.068616	
10.9446	  0.070344	  0.271714	  0.069358	
10.9778	  0.073945	  0.276314	  0.067351	
11.0111	  0.079267	  0.278029	  0.063261	
11.0444	  0.085653	  0.276739	  0.058354	
11.0776	  0.092040	  0.273121	  0.053770	
11.1109	  0.097229	  0.268259	  0.050084	
11.1442	  0.100285	  0.263114	  0.047346	
11.1774	  0.100860	  0.258182	  0.045378	
11.2107	  0.099290	  0.253529	  0.044002	
11.244	  0.096398	  0.249168	  0.043086	
11.2772	  0.093135	  0.245485	  0.042489	
11.3105	  0.090218	  0.243381	  0.042027	
11.3437	  0.087918	  0.243928	  0.041536	
11.377	  0.086065	  0.247739	  0.040955	
11.4103	  0.084248	  0.254463	  0.040357	
11.4435	  0.082126	  0.262770	  0.039869	
11.4768	  0.079655	  0.270859	  0.039569	
11.5101	  0.077122	  0.277124	  0.039455	
11.5433	  0.074949	  0.280599	  0.039494	
11.5766	  0.073440	  0.281071	  0.039679	
11.6099	  0.072622	  0.278964	  0.040026	
11.6431	  0.072275	  0.275071	  0.040525	
11.6764	  0.072080	  0.270131	  0.041123	
11.7097	  0.071754	  0.264478	  0.041729	
11.7429	  0.071085	  0.258064	  0.042229	
11.7762	  0.069905	  0.250963	  0.042495	
11.8095	  0.068113	  0.243847	  0.042423	
11.8427	  0.065762	  0.237917	  0.042003	
11.876	  0.063092	  0.234229	  0.041373	
11.9093	  0.060412	  0.232944	  0.040773	
11.9425	  0.057903	  0.233080	  0.040422	
11.9758	  0.055566	  0.232902	  0.040409	
12.0091	  0.053353	  0.230714	  0.040653	
12.0423	  0.051356	  0.225624	  0.040950	
12.0756	  0.049816	  0.217885	  0.041068	
12.1089	  0.048964	  0.208657	  0.040817	
12.1421	  0.048864	  0.199369	  0.040116	
12.1754	  0.049418	  0.191143	  0.039008	
12.2087	  0.050470	  0.184625	  0.037650	
12.2419	  0.051857	  0.180180	  0.036253	
12.2752	  0.053363	  0.178068	  0.035017	
12.3085	  0.054715	  0.178366	  0.034081	
12.3417	  0.055707	  0.180748	  0.033507	
12.375	  0.056353	  0.184480	  0.033292	
12.4083	  0.056868	  0.188743	  0.033381	
12.4415	  0.057436	  0.193062	  0.033686	
12.4748	  0.057968	  0.197401	  0.034108	
12.5081	  0.058126	  0.201846	  0.034545	
12.5413	  0.057615	  0.206152	  0.034911	
12.5746	  0.056482	  0.209607	  0.035147	
12.6079	  0.055124	  0.211371	  0.035233	
12.6411	  0.054020	  0.211058	  0.035192	
12.6744	  0.053437	  0.209071	  0.035090	
12.7077	  0.053378	  0.206377	  0.035014	
12.7409	  0.053734	  0.203906	  0.035046	
12.7742	  0.054391	  0.202106	  0.035215	
12.8075	  0.055180	  0.201040	  0.035491	
12.8407	  0.055778	  0.200805	  0.035786	
12.874	  0.055782	  0.201698	  0.035999	
12.9073	  0.054968	  0.203869	  0.036054	
12.9405	  0.053516	  0.206878	  0.035929	
12.9738	  0.051938	  0.209714	  0.035658	
13.0071	  0.050738	  0.211352	  0.035321	
13.0403	  0.050086	  0.211302	  0.035011	
13.0736	  0.049793	  0.209701	  0.034796	
13.1069	  0.049553	  0.207061	  0.034703	
13.1401	  0.049200	  0.204111	  0.034718	
13.1734	  0.048773	  0.201795	  0.034820	
13.2067	  0.048386	  0.201061	  0.034987	
13.2399	  0.048096	  0.202309	  0.035194	
13.2732	  0.047867	  0.204987	  0.035403	
13.3065	  0.047640	  0.207894	  0.035554	
13.3397	  0.047400	  0.210064	  0.035583	
13.373	  0.047160	  0.211409	  0.035452	
13.4062	  0.046928	  0.212527	  0.035177	
13.4395	  0.046705	  0.213947	  0.034834	
13.4728	  0.046513	  0.215591	  0.034533	
13.506	  0.046412	  0.216877	  0.034362	
13.5393	  0.046459	  0.217173	  0.034356	
13.5726	  0.046655	  0.216138	  0.034492	
13.6058	  0.046932	  0.213745	  0.034726	
13.6391	  0.047179	  0.210198	  0.035007	
13.6724	  0.047289	  0.205979	  0.035291	
13.7056	  0.047195	  0.201957	  0.035521	
13.7389	  0.046898	  0.199232	  0.035630	
13.7722	  0.046489	  0.198546	  0.035562	
13.8054	  0.046125	  0.199625	  0.035307	
13.8387	  0.045927	  0.201110	  0.034919	
13.872	  0.045858	  0.201351	  0.034492	
13.9052	  0.045685	  0.199502	  0.034122	
13.9385	  0.045101	  0.196008	  0.033866	
13.9718	  0.043935	  0.192112	  0.033747	
14.005	  0.042275	  0.188929	  0.033752	
14.0383	  0.040418	  0.186927	  0.033831	
14.0716	  0.038697	  0.186091	  0.033867	
14.1048	  0.037342	  0.186317	  0.033689	
14.1381	  0.036457	  0.187521	  0.033136	
14.1714	  0.036088	  0.189498	  0.032141	
14.2046	  0.036280	  0.191896	  0.030781	
14.2379	  0.037078	  0.194460	  0.029234	
14.2712	  0.038462	  0.197223	  0.027696	
